<mxfile host="app.diagrams.net" agent="Mozilla/5.0 (Windows NT 10.0; Win64; x64) AppleWebKit/537.36 (KHTML, like Gecko) Chrome/135.0.0.0 Safari/537.36 Edg/135.0.0.0" version="26.2.12">
  <diagram name="第 1 页" id="XD0qNdfzVpc5fez3cEbL">
    <mxGraphModel dx="2589" dy="1792" grid="1" gridSize="10" guides="1" tooltips="1" connect="1" arrows="1" fold="1" page="1" pageScale="1" pageWidth="1169" pageHeight="827" math="0" shadow="0">
      <root>
        <mxCell id="0" />
        <mxCell id="1" parent="0" />
        <mxCell id="9R25x5qAeBOHMjVrGIi3-22" value="&lt;span style=&quot;color: rgba(0, 0, 0, 0); font-family: monospace; font-size: 0px; text-align: start;&quot;&gt;%3CmxGraphModel%3E%3Croot%3E%3CmxCell%20id%3D%220%22%2F%3E%3CmxCell%20id%3D%221%22%20parent%3D%220%22%2F%3E%3CmxCell%20id%3D%222%22%20value%3D%22%26lt%3Bb%26gt%3BEnv.%20Prompt%26lt%3B%2Fb%26gt%3B%22%20style%3D%22text%3Bhtml%3D1%3Balign%3Dcenter%3BverticalAlign%3Dmiddle%3Bresizable%3D0%3Bpoints%3D%5B%5D%3Bautosize%3D1%3BstrokeColor%3Dnone%3BfillColor%3Dnone%3B%22%20vertex%3D%221%22%20parent%3D%221%22%3E%3CmxGeometry%20x%3D%22235%22%20y%3D%22265%22%20width%3D%2290%22%20height%3D%2230%22%20as%3D%22geometry%22%2F%3E%3C%2FmxCell%3E%3C%2Froot%3E%3C%2FmxGraphModel%3E&lt;/span&gt;" style="text;html=1;align=center;verticalAlign=middle;resizable=0;points=[];autosize=1;strokeColor=none;fillColor=none;fontStyle=4" vertex="1" parent="1">
          <mxGeometry x="-218.11683168316836" y="-267.7815118832898" width="20" height="30" as="geometry" />
        </mxCell>
        <mxCell id="9R25x5qAeBOHMjVrGIi3-23" value="" style="rounded=1;arcSize=5;whiteSpace=wrap;html=1;fillColor=light-dark(#e8f2e8, #1f2f1e);strokeColor=#82b366;dashed=1;dashPattern=8 8;strokeWidth=2.5;movable=1;resizable=1;rotatable=1;deletable=1;editable=1;locked=0;connectable=1;" vertex="1" parent="1">
          <mxGeometry x="-840" y="-589" width="600" height="264" as="geometry" />
        </mxCell>
        <mxCell id="9R25x5qAeBOHMjVrGIi3-24" value="" style="shape=image;html=1;verticalAlign=top;verticalLabelPosition=bottom;labelBackgroundColor=#ffffff;imageAspect=0;aspect=fixed;image=https://cdn0.iconfinder.com/data/icons/phosphor-light-vol-1/256/brain-light-128.png;imageBackground=none;imageBorder=none;movable=1;resizable=1;rotatable=1;deletable=1;editable=1;locked=0;connectable=1;" vertex="1" parent="1">
          <mxGeometry x="-471.5" y="-505.5" width="73" height="73" as="geometry" />
        </mxCell>
        <mxCell id="9R25x5qAeBOHMjVrGIi3-25" value="" style="group;fontStyle=0;strokeWidth=1;movable=1;resizable=1;rotatable=1;deletable=1;editable=1;locked=0;connectable=1;" vertex="1" connectable="0" parent="1">
          <mxGeometry x="-475" y="-513" width="116.43624161073825" height="165" as="geometry" />
        </mxCell>
        <mxCell id="9R25x5qAeBOHMjVrGIi3-26" value="&lt;font style=&quot;font-size: 14px;&quot;&gt;&lt;font style=&quot;&quot; face=&quot;Times New Roman&quot;&gt;&lt;b style=&quot;&quot;&gt;轻量大语言模型&lt;/b&gt;&lt;/font&gt;&lt;br&gt;&lt;/font&gt;&lt;div&gt;&lt;font style=&quot;font-size: 14px;&quot; face=&quot;Times New Roman&quot;&gt;&lt;b style=&quot;&quot;&gt;GPT-4o-mini&lt;/b&gt;&lt;/font&gt;&lt;/div&gt;" style="text;html=1;align=center;verticalAlign=middle;resizable=1;points=[];autosize=1;strokeColor=none;fillColor=none;movable=1;rotatable=1;deletable=1;editable=1;locked=0;connectable=1;" vertex="1" parent="9R25x5qAeBOHMjVrGIi3-25">
          <mxGeometry x="-20.003758389261744" y="68.5" width="120" height="50" as="geometry" />
        </mxCell>
        <mxCell id="9R25x5qAeBOHMjVrGIi3-27" style="edgeStyle=orthogonalEdgeStyle;rounded=1;orthogonalLoop=1;jettySize=auto;html=1;fillColor=#1ba1e2;strokeColor=light-dark(#385723, #28ab6a);curved=0;movable=1;resizable=1;rotatable=1;deletable=1;editable=1;locked=0;connectable=1;" edge="1" parent="9R25x5qAeBOHMjVrGIi3-25">
          <mxGeometry relative="1" as="geometry">
            <mxPoint x="73.61999999999989" y="47" as="sourcePoint" />
            <mxPoint x="99.61999999999989" y="47" as="targetPoint" />
            <Array as="points">
              <mxPoint x="99.98999999999978" y="47.210000000000036" />
              <mxPoint x="99.98999999999978" y="47.210000000000036" />
            </Array>
          </mxGeometry>
        </mxCell>
        <mxCell id="9R25x5qAeBOHMjVrGIi3-28" value="&lt;font face=&quot;Times New Roman&quot;&gt;&lt;span style=&quot;font-size: 14px;&quot;&gt;&lt;b&gt;交互物体概率列表&lt;/b&gt;&lt;/span&gt;&lt;/font&gt;" style="text;html=1;align=center;verticalAlign=middle;resizable=1;points=[];autosize=1;strokeColor=none;fillColor=none;movable=1;rotatable=1;deletable=1;editable=1;locked=0;connectable=1;" vertex="1" parent="1">
          <mxGeometry x="-381.99739130434773" y="-371" width="130" height="29" as="geometry" />
        </mxCell>
        <mxCell id="9R25x5qAeBOHMjVrGIi3-29" value="" style="shape=flexArrow;endArrow=classic;html=1;rounded=0;fillColor=light-dark(#517f31, #2566a8);strokeColor=light-dark(#517f31, #ededed);endWidth=5.2;endSize=4.356;movable=1;resizable=1;rotatable=1;deletable=1;editable=1;locked=0;connectable=1;" edge="1" parent="1">
          <mxGeometry width="50" height="50" relative="1" as="geometry">
            <mxPoint x="-253" y="-462" as="sourcePoint" />
            <mxPoint x="-219" y="-462" as="targetPoint" />
            <Array as="points">
              <mxPoint x="-243" y="-462" />
            </Array>
          </mxGeometry>
        </mxCell>
        <mxCell id="9R25x5qAeBOHMjVrGIi3-30" value="" style="rounded=1;arcSize=5;whiteSpace=wrap;html=1;fillColor=#fff2cc;strokeColor=light-dark(#6D5100,#000000);strokeWidth=2;movable=1;resizable=1;rotatable=1;deletable=1;editable=1;locked=0;connectable=1;" vertex="1" parent="1">
          <mxGeometry x="-217" y="-526" width="43" height="124" as="geometry" />
        </mxCell>
        <mxCell id="9R25x5qAeBOHMjVrGIi3-31" value="&lt;font face=&quot;Times New Roman&quot;&gt;&lt;span style=&quot;font-size: 15px;&quot;&gt;动&lt;/span&gt;&lt;/font&gt;&lt;div&gt;&lt;font face=&quot;Times New Roman&quot;&gt;&lt;span style=&quot;font-size: 15px;&quot;&gt;态&lt;/span&gt;&lt;/font&gt;&lt;/div&gt;&lt;div&gt;&lt;font face=&quot;Times New Roman&quot;&gt;&lt;span style=&quot;font-size: 15px;&quot;&gt;迭&lt;/span&gt;&lt;/font&gt;&lt;/div&gt;&lt;div&gt;&lt;font face=&quot;Times New Roman&quot;&gt;&lt;span style=&quot;font-size: 15px;&quot;&gt;代&lt;/span&gt;&lt;/font&gt;&lt;/div&gt;&lt;div&gt;&lt;font face=&quot;Times New Roman&quot;&gt;&lt;span style=&quot;font-size: 15px;&quot;&gt;模&lt;/span&gt;&lt;/font&gt;&lt;/div&gt;&lt;div&gt;&lt;font face=&quot;Times New Roman&quot;&gt;&lt;span style=&quot;font-size: 15px;&quot;&gt;块&lt;/span&gt;&lt;/font&gt;&lt;/div&gt;" style="text;html=1;align=center;verticalAlign=middle;resizable=1;points=[];autosize=1;strokeColor=none;fillColor=none;fontColor=light-dark(#7f6105, #69c195);fontStyle=1;movable=1;rotatable=1;deletable=1;editable=1;locked=0;connectable=1;" vertex="1" parent="1">
          <mxGeometry x="-212.6400000000001" y="-524" width="33" height="120" as="geometry" />
        </mxCell>
        <mxCell id="9R25x5qAeBOHMjVrGIi3-32" value="" style="rounded=1;arcSize=5;whiteSpace=wrap;html=1;fillColor=#d5e8d4;strokeColor=light-dark(#517f31, #446e2c);align=center;verticalAlign=middle;fontFamily=Helvetica;fontSize=12;fontColor=default;strokeWidth=1.5;movable=1;resizable=1;rotatable=1;deletable=1;editable=1;locked=0;connectable=1;" vertex="1" parent="1">
          <mxGeometry x="-655.6500000000001" y="-566" width="160" height="209" as="geometry" />
        </mxCell>
        <mxCell id="9R25x5qAeBOHMjVrGIi3-33" value="&lt;font&gt;用户对话&lt;/font&gt;" style="rounded=0;whiteSpace=wrap;html=1;pointerEvents=0;align=center;verticalAlign=top;fontFamily=Helvetica;fontSize=12;fontColor=default;fillColor=default;gradientColor=none;strokeColor=light-dark(#517f31, #ededed);strokeWidth=1.5;movable=1;resizable=1;rotatable=1;deletable=1;editable=1;locked=0;connectable=1;" vertex="1" parent="1">
          <mxGeometry x="-637" y="-551" width="120" height="29" as="geometry" />
        </mxCell>
        <mxCell id="9R25x5qAeBOHMjVrGIi3-34" value="&lt;span style=&quot;line-height: 120%;&quot;&gt;&lt;font face=&quot;Helvetica&quot;&gt;交互列表&lt;/font&gt;&lt;/span&gt;" style="rounded=0;whiteSpace=wrap;html=1;pointerEvents=0;align=center;verticalAlign=top;fontFamily=Helvetica;fontSize=12;fontColor=default;fillColor=default;gradientColor=none;strokeColor=light-dark(#517f31, #ededed);strokeWidth=1.5;movable=1;resizable=1;rotatable=1;deletable=1;editable=1;locked=0;connectable=1;" vertex="1" parent="1">
          <mxGeometry x="-637" y="-496" width="120" height="29" as="geometry" />
        </mxCell>
        <mxCell id="9R25x5qAeBOHMjVrGIi3-35" value="" style="shape=cross;whiteSpace=wrap;html=1;fillColor=light-dark(#548235, #ededed);strokeColor=light-dark(#548235, #ededed);aspect=fixed;movable=1;resizable=1;rotatable=1;deletable=1;editable=1;locked=0;connectable=1;" vertex="1" parent="1">
          <mxGeometry x="-587" y="-519" width="20" height="20" as="geometry" />
        </mxCell>
        <mxCell id="9R25x5qAeBOHMjVrGIi3-36" value="&lt;span style=&quot;line-height: 120%;&quot;&gt;&lt;font face=&quot;Helvetica&quot;&gt;历史行为&lt;/font&gt;&lt;/span&gt;" style="rounded=0;whiteSpace=wrap;html=1;pointerEvents=0;align=center;verticalAlign=top;fontFamily=Helvetica;fontSize=12;fontColor=default;fillColor=default;gradientColor=none;strokeColor=light-dark(#517f31, #ededed);strokeWidth=1.5;movable=1;resizable=1;rotatable=1;deletable=1;editable=1;locked=0;connectable=1;" vertex="1" parent="1">
          <mxGeometry x="-637" y="-461" width="120" height="29" as="geometry" />
        </mxCell>
        <mxCell id="9R25x5qAeBOHMjVrGIi3-37" value="" style="shape=cross;whiteSpace=wrap;html=1;fillColor=light-dark(#548235, #ededed);strokeColor=light-dark(#548235, #ededed);aspect=fixed;movable=1;resizable=1;rotatable=1;deletable=1;editable=1;locked=0;connectable=1;" vertex="1" parent="1">
          <mxGeometry x="-587" y="-429" width="20" height="20" as="geometry" />
        </mxCell>
        <mxCell id="9R25x5qAeBOHMjVrGIi3-38" value="&lt;span style=&quot;line-height: 120%;&quot;&gt;&lt;font face=&quot;Helvetica&quot;&gt;推理意图&lt;/font&gt;&lt;/span&gt;" style="rounded=0;whiteSpace=wrap;html=1;pointerEvents=0;align=center;verticalAlign=top;fontFamily=Helvetica;fontSize=12;fillColor=#dae8fc;strokeColor=light-dark(#548235, #5c79a3);strokeWidth=1.5;dashed=1;dashPattern=8 8;movable=1;resizable=1;rotatable=1;deletable=1;editable=1;locked=0;connectable=1;" vertex="1" parent="1">
          <mxGeometry x="-637" y="-406" width="120" height="29" as="geometry" />
        </mxCell>
        <mxCell id="9R25x5qAeBOHMjVrGIi3-39" value="&lt;div style=&quot;line-height: 100%;&quot;&gt;&lt;span style=&quot;background-color: transparent; color: light-dark(rgb(0, 0, 0), rgb(255, 255, 255)); font-family: &amp;quot;Times New Roman&amp;quot;;&quot;&gt;&amp;nbsp; &lt;font style=&quot;font-size: 10px;&quot;&gt;&amp;nbsp;&lt;/font&gt;&lt;/span&gt;&lt;span style=&quot;background-color: transparent; color: light-dark(rgb(0, 0, 0), rgb(255, 255, 255)); font-family: &amp;quot;Times New Roman&amp;quot;;&quot;&gt;&lt;font style=&quot;font-size: 10px;&quot;&gt;Human wants to have coffee&lt;/font&gt;&lt;/span&gt;&lt;/div&gt;&lt;div style=&quot;line-height: 100%;&quot;&gt;&lt;span style=&quot;font-family: &amp;quot;Times New Roman&amp;quot;; background-color: transparent; color: light-dark(rgb(0, 0, 0), rgb(255, 255, 255));&quot;&gt;&lt;font style=&quot;font-size: 10px;&quot;&gt;&amp;nbsp; &amp;nbsp;-Yes&lt;/font&gt;&lt;/span&gt;&lt;/div&gt;&lt;div style=&quot;line-height: 100%;&quot;&gt;&lt;font style=&quot;font-size: 10px;&quot;&gt;&lt;span style=&quot;font-family: &amp;quot;Times New Roman&amp;quot;; background-color: transparent; color: light-dark(rgb(0, 0, 0), rgb(255, 255, 255));&quot;&gt;&amp;nbsp; &amp;nbsp;-&lt;/span&gt;&lt;span style=&quot;font-family: &amp;quot;Times New Roman&amp;quot;; background-color: transparent; color: light-dark(rgb(0, 0, 0), rgb(255, 255, 255));&quot;&gt;No&lt;/span&gt;&lt;/font&gt;&lt;/div&gt;" style="shape=note;whiteSpace=wrap;html=1;backgroundOutline=1;darkOpacity=0.05;align=left;size=9;fillColor=light-dark(#bdd7ee, #ededed);movable=1;resizable=1;rotatable=1;deletable=1;editable=1;locked=0;connectable=1;" vertex="1" parent="1">
          <mxGeometry x="-827" y="-417" width="140" height="60" as="geometry" />
        </mxCell>
        <mxCell id="9R25x5qAeBOHMjVrGIi3-40" value="&lt;font style=&quot;font-size: 14px;&quot; face=&quot;Times New Roman&quot;&gt;&lt;b style=&quot;&quot;&gt;意图选择&lt;/b&gt;&lt;/font&gt;" style="text;html=1;align=center;verticalAlign=middle;resizable=1;points=[];autosize=1;strokeColor=none;fillColor=none;movable=1;rotatable=1;deletable=1;editable=1;locked=0;connectable=1;" vertex="1" parent="1">
          <mxGeometry x="-740.9996415770611" y="-357.0005687203791" width="80" height="30" as="geometry" />
        </mxCell>
        <mxCell id="9R25x5qAeBOHMjVrGIi3-41" value="" style="endArrow=none;html=1;rounded=0;strokeColor=light-dark(#548235, #ededed);strokeWidth=1.5;movable=1;resizable=1;rotatable=1;deletable=1;editable=1;locked=0;connectable=1;" edge="1" parent="1">
          <mxGeometry width="50" height="50" relative="1" as="geometry">
            <mxPoint x="-687" y="-391.25" as="sourcePoint" />
            <mxPoint x="-677" y="-391.25" as="targetPoint" />
          </mxGeometry>
        </mxCell>
        <mxCell id="9R25x5qAeBOHMjVrGIi3-42" value="" style="shape=actor;whiteSpace=wrap;html=1;aspect=fixed;movable=1;resizable=1;rotatable=1;deletable=1;editable=1;locked=0;connectable=1;" vertex="1" parent="1">
          <mxGeometry x="-813" y="-566" width="38.81" height="50" as="geometry" />
        </mxCell>
        <mxCell id="9R25x5qAeBOHMjVrGIi3-43" value="&lt;font face=&quot;Times New Roman&quot;&gt;I&#39;m sleepy&lt;/font&gt;" style="whiteSpace=wrap;html=1;shape=mxgraph.basic.roundRectCallout;dx=30;dy=15;size=5;boundedLbl=1;movable=1;resizable=1;rotatable=1;deletable=1;editable=1;locked=0;connectable=1;" vertex="1" parent="1">
          <mxGeometry x="-774.1942857142858" y="-566" width="64.78" height="50" as="geometry" />
        </mxCell>
        <mxCell id="9R25x5qAeBOHMjVrGIi3-44" value="&lt;font face=&quot;Times New Roman&quot; style=&quot;font-size: 14px;&quot;&gt;&lt;b&gt;用户对话&lt;/b&gt;&lt;/font&gt;" style="text;html=1;align=center;verticalAlign=middle;resizable=1;points=[];autosize=1;strokeColor=none;fillColor=none;movable=1;rotatable=1;deletable=1;editable=1;locked=0;connectable=1;" vertex="1" parent="1">
          <mxGeometry x="-805.2" y="-520" width="74" height="29" as="geometry" />
        </mxCell>
        <mxCell id="9R25x5qAeBOHMjVrGIi3-45" value="&lt;font style=&quot;font-size: 18px;&quot; face=&quot;Times New Roman&quot;&gt;目标预测模块&lt;/font&gt;" style="text;html=1;align=center;verticalAlign=middle;resizable=1;points=[];autosize=1;strokeColor=none;fillColor=none;fontColor=light-dark(#548235, #69c195);fontStyle=1;movable=1;rotatable=1;deletable=1;editable=1;locked=0;connectable=1;" vertex="1" parent="1">
          <mxGeometry x="-366" y="-587" width="126" height="34" as="geometry" />
        </mxCell>
        <mxCell id="9R25x5qAeBOHMjVrGIi3-46" value="&lt;font face=&quot;Times New Roman&quot; style=&quot;font-size: 14px;&quot;&gt;&lt;b style=&quot;&quot;&gt;推理提示（Prompt）&lt;/b&gt;&lt;/font&gt;" style="text;html=1;align=center;verticalAlign=middle;resizable=1;points=[];autosize=1;strokeColor=none;fillColor=none;movable=1;rotatable=1;deletable=1;editable=1;locked=0;connectable=1;" vertex="1" parent="1">
          <mxGeometry x="-645.6473913043478" y="-357" width="150" height="30" as="geometry" />
        </mxCell>
        <mxCell id="9R25x5qAeBOHMjVrGIi3-47" value="" style="endArrow=classic;startArrow=classic;html=1;rounded=0;entryX=-0.009;entryY=0.46;entryDx=0;entryDy=0;entryPerimeter=0;exitX=0.005;exitY=0.558;exitDx=0;exitDy=0;exitPerimeter=0;strokeColor=light-dark(#548235, #ededed);edgeStyle=elbowEdgeStyle;strokeWidth=1.5;movable=1;resizable=1;rotatable=1;deletable=1;editable=1;locked=0;connectable=1;" edge="1" parent="1" target="9R25x5qAeBOHMjVrGIi3-36">
          <mxGeometry width="50" height="50" relative="1" as="geometry">
            <mxPoint x="-638.2204347826087" y="-391.26" as="sourcePoint" />
            <mxPoint x="-639.130434782609" y="-465.6299999999999" as="targetPoint" />
            <Array as="points">
              <mxPoint x="-677" y="-416" />
            </Array>
          </mxGeometry>
        </mxCell>
        <mxCell id="9R25x5qAeBOHMjVrGIi3-48" value="&lt;font style=&quot;font-size: 8px;&quot;&gt;Yes&lt;/font&gt;" style="edgeLabel;html=1;align=center;verticalAlign=middle;resizable=1;points=[];movable=1;rotatable=1;deletable=1;editable=1;locked=0;connectable=1;labelBackgroundColor=none;" vertex="1" connectable="0" parent="9R25x5qAeBOHMjVrGIi3-47">
          <mxGeometry x="0.1665" y="2" relative="1" as="geometry">
            <mxPoint x="-8" y="4" as="offset" />
          </mxGeometry>
        </mxCell>
        <mxCell id="9R25x5qAeBOHMjVrGIi3-49" value="&lt;font style=&quot;font-size: 8px;&quot;&gt;No&lt;/font&gt;" style="edgeLabel;html=1;align=center;verticalAlign=middle;resizable=1;points=[];movable=1;rotatable=1;deletable=1;editable=1;locked=0;connectable=1;labelBackgroundColor=none;" vertex="1" connectable="0" parent="9R25x5qAeBOHMjVrGIi3-47">
          <mxGeometry x="-0.2413" y="1" relative="1" as="geometry">
            <mxPoint x="14" y="16" as="offset" />
          </mxGeometry>
        </mxCell>
        <mxCell id="9R25x5qAeBOHMjVrGIi3-50" value="&lt;font style=&quot;font-size: 8px;&quot;&gt;Clear&lt;/font&gt;" style="edgeLabel;html=1;align=center;verticalAlign=middle;resizable=1;points=[];fontSize=9;movable=1;rotatable=1;deletable=1;editable=1;locked=0;connectable=1;labelBackgroundColor=none;" vertex="1" connectable="0" parent="9R25x5qAeBOHMjVrGIi3-47">
          <mxGeometry x="0.5998" y="1" relative="1" as="geometry">
            <mxPoint x="5" y="-6" as="offset" />
          </mxGeometry>
        </mxCell>
        <mxCell id="9R25x5qAeBOHMjVrGIi3-51" style="edgeStyle=orthogonalEdgeStyle;rounded=1;orthogonalLoop=1;jettySize=auto;html=1;fillColor=#1ba1e2;strokeColor=light-dark(#385723, #28ab6a);curved=0;movable=1;resizable=1;rotatable=1;deletable=1;editable=1;locked=0;connectable=1;" edge="1" parent="1">
          <mxGeometry relative="1" as="geometry">
            <mxPoint x="-495.6500000000001" y="-467" as="sourcePoint" />
            <mxPoint x="-469.6500000000001" y="-467" as="targetPoint" />
            <Array as="points">
              <mxPoint x="-469.2800000000002" y="-466.78999999999996" />
              <mxPoint x="-469.2800000000002" y="-466.78999999999996" />
            </Array>
          </mxGeometry>
        </mxCell>
        <mxCell id="9R25x5qAeBOHMjVrGIi3-52" value="" style="shape=singleArrow;whiteSpace=wrap;html=1;fillColor=light-dark(#eeeeee, #1a1a1a);strokeColor=#666666;gradientColor=none;arrowWidth=0.4166666666666761;arrowSize=0.21250000000000036;movable=1;resizable=1;rotatable=1;deletable=1;editable=1;locked=0;connectable=1;" vertex="1" parent="1">
          <mxGeometry x="-703" y="-547" width="64" height="24" as="geometry" />
        </mxCell>
        <mxCell id="9R25x5qAeBOHMjVrGIi3-53" value="&lt;div&gt;&lt;font style=&quot;font-size: 10px;&quot;&gt;&lt;b&gt;&amp;nbsp; &amp;nbsp;&amp;nbsp;&lt;/b&gt;&lt;/font&gt;&lt;/div&gt;&lt;div&gt;&lt;b&gt;&lt;font style=&quot;font-size: 10px;&quot;&gt;&amp;nbsp;&lt;/font&gt;&lt;/b&gt;&lt;/div&gt;" style="rounded=1;arcSize=5;whiteSpace=wrap;html=1;fillColor=#d5e8d4;strokeColor=light-dark(#517f31, #446e2c);align=left;verticalAlign=middle;fontFamily=Helvetica;fontSize=12;fontColor=default;strokeWidth=1.5;movable=1;resizable=1;rotatable=1;deletable=1;editable=1;locked=0;connectable=1;" vertex="1" parent="1">
          <mxGeometry x="-374" y="-539" width="119" height="164" as="geometry" />
        </mxCell>
        <mxCell id="9R25x5qAeBOHMjVrGIi3-54" value="&lt;div style=&quot;&quot;&gt;&lt;div&gt;&lt;span style=&quot;font-size: 10px;&quot;&gt;&lt;b&gt;&lt;br&gt;&lt;/b&gt;&lt;/span&gt;&lt;/div&gt;&lt;b style=&quot;font-size: 10px; background-color: transparent; color: light-dark(rgb(0, 0, 0), rgb(255, 255, 255));&quot;&gt;-交互物体1&lt;/b&gt;&lt;br&gt;&lt;b style=&quot;background-color: transparent; color: light-dark(rgb(0, 0, 0), rgb(255, 255, 255)); font-size: 10px;&quot;&gt;&amp;nbsp;name：sof&lt;/b&gt;&lt;span style=&quot;background-color: transparent; color: light-dark(rgb(0, 0, 0), rgb(255, 255, 255)); font-size: 10px;&quot;&gt;&lt;b&gt;a&lt;/b&gt;&lt;/span&gt;&lt;br&gt;&lt;span style=&quot;background-color: transparent; color: light-dark(rgb(0, 0, 0), rgb(255, 255, 255)); font-size: 10px;&quot;&gt;&lt;b&gt;&amp;nbsp;probability: 0&lt;/b&gt;&lt;/span&gt;&lt;b style=&quot;background-color: transparent; color: light-dark(rgb(0, 0, 0), rgb(255, 255, 255)); font-size: 10px;&quot;&gt;.4&lt;/b&gt;&lt;br&gt;&lt;b style=&quot;font-size: 10px; background-color: transparent; color: light-dark(rgb(0, 0, 0), rgb(255, 255, 255));&quot;&gt;-交互物体2&lt;/b&gt;&lt;br&gt;&lt;b style=&quot;background-color: transparent; color: light-dark(rgb(0, 0, 0), rgb(255, 255, 255)); font-size: 10px;&quot;&gt;&amp;nbsp; name：TV&lt;/b&gt;&lt;br&gt;&lt;span style=&quot;background-color: transparent; color: light-dark(rgb(0, 0, 0), rgb(255, 255, 255)); font-size: 10px;&quot;&gt;&lt;b&gt;&amp;nbsp; probability: 0&lt;/b&gt;&lt;/span&gt;&lt;b style=&quot;background-color: transparent; color: light-dark(rgb(0, 0, 0), rgb(255, 255, 255)); font-size: 10px;&quot;&gt;.3&lt;/b&gt;&lt;br&gt;&lt;b style=&quot;font-size: 10px; background-color: transparent; color: light-dark(rgb(0, 0, 0), rgb(255, 255, 255));&quot;&gt;-交互物体3&lt;/b&gt;&lt;br&gt;&lt;b style=&quot;background-color: transparent; color: light-dark(rgb(0, 0, 0), rgb(255, 255, 255)); font-size: 10px;&quot;&gt;&amp;nbsp; name：chair&lt;/b&gt;&lt;br&gt;&lt;span style=&quot;background-color: transparent; color: light-dark(rgb(0, 0, 0), rgb(255, 255, 255)); font-size: 10px;&quot;&gt;&lt;b&gt;&amp;nbsp; probability: 0&lt;/b&gt;&lt;/span&gt;&lt;b style=&quot;background-color: transparent; color: light-dark(rgb(0, 0, 0), rgb(255, 255, 255)); font-size: 10px;&quot;&gt;.15&lt;/b&gt;&lt;/div&gt;&lt;b style=&quot;background-color: transparent; color: light-dark(rgb(0, 0, 0), rgb(255, 255, 255)); font-size: 10px;&quot;&gt;&amp;nbsp;……&lt;/b&gt;&lt;br&gt;&lt;div style=&quot;&quot;&gt;&lt;br&gt;&lt;/div&gt;" style="text;html=1;align=left;verticalAlign=middle;whiteSpace=wrap;rounded=0;movable=1;resizable=1;rotatable=1;deletable=1;editable=1;locked=0;connectable=1;" vertex="1" parent="1">
          <mxGeometry x="-362" y="-513" width="98" height="114" as="geometry" />
        </mxCell>
      </root>
    </mxGraphModel>
  </diagram>
</mxfile>
